<svg id="Layer_1" data-name="Layer 1" xmlns="http://www.w3.org/2000/svg" viewBox="0 0 661.35 299.66"><defs><style>.cls-1,.cls-2,.cls-4{isolation:isolate;}.cls-2{font-size:16px;}.cls-2,.cls-4{font-family:ArialMT, Arial;}.cls-10,.cls-3,.cls-6,.cls-8{fill:none;}.cls-3{stroke:#ccc;stroke-dasharray:3 3;}.cls-4{font-size:14px;}.cls-5{fill:#ff931e;}.cls-5,.cls-7,.cls-9{fill-opacity:0.6;opacity:0.6;}.cls-6{stroke:#ff931e;}.cls-10,.cls-6,.cls-8{stroke-miterlimit:10;stroke-width:3px;}.cls-7{fill:#ff1d25;}.cls-8{stroke:#ff1d25;}.cls-9{fill:#3fa9f5;}.cls-10{stroke:#3fa9f5;}.cls-11{fill:#f59e0b;}.cls-12{font-size:26px;font-family:Arial-BoldMT, Arial;font-weight:700;}.cls-13{fill:red;}.cls-14{fill:#3b82f6;}</style></defs><g class="cls-1"><text class="cls-2" transform="translate(23.36 276.33)">$ 0</text></g><g class="cls-1"><text class="cls-2" transform="translate(0 202.83)">$ 2,500</text></g><g class="cls-1"><text class="cls-2" transform="translate(0 129.33)">$ 5,000</text></g><g class="cls-1"><text class="cls-2" transform="translate(0 55.83)">$ 7,500</text></g><line class="cls-3" x1="64.51" y1="272.6" x2="660.95" y2="272.6"/><line class="cls-3" x1="64.51" y1="199.1" x2="660.95" y2="199.1"/><line class="cls-3" x1="64.51" y1="125.6" x2="660.95" y2="125.6"/><line class="cls-3" x1="64.51" y1="52.1" x2="660.95" y2="52.1"/><g class="cls-1"><text class="cls-4" transform="translate(64.5 295.12)">Jan 22</text></g><g class="cls-1"><text class="cls-4" transform="translate(188.03 295.12)">Feb 22</text></g><g class="cls-1"><text class="cls-4" transform="translate(333.24 295.12)">Mar 22</text></g><g class="cls-1"><text class="cls-4" transform="translate(480.44 295.12)">Apr 22</text></g><g class="cls-1"><text class="cls-4" transform="translate(612.64 295.12)">May 22</text></g><path class="cls-5" d="M706.56,327.89l117.22-32.75L941,396.16l117.22,10L1159.91,219,1293,209l-.35,232.64H706.56Z" transform="translate(-632.05 -169.04)"/><path class="cls-6" d="M706.56,327.89l117.22-32.75L941,396.16l117.22,10,102.1-186.71,132.29-10" transform="translate(-632.05 -169.04)"/><path class="cls-7" d="M706.56,372.08l117.29,32.75,117.29-71.62,117.28-21.81,117.29,77L1293,420.29v21.35H706.56Z" transform="translate(-632.05 -169.04)"/><path class="cls-8" d="M706.56,372.08l117.29,32.75,117.29-71.62,117.28-21.81,117.29,77L1293,420.29" transform="translate(-632.05 -169.04)"/><path class="cls-9" d="M706.56,258.33H1293V441.64H706.56Z" transform="translate(-632.05 -169.04)"/><path class="cls-10" d="M706.56,258.33H1293" transform="translate(-632.05 -169.04)"/><path class="cls-11" d="M1195.64,183.09a8.16,8.16,0,1,1,8.15,8.16,8.15,8.15,0,0,1-8.15-8.16" transform="translate(-632.05 -169.04)"/><text class="cls-12" transform="translate(593.59 23.31)">Rise</text><circle class="cls-13" cx="449.14" cy="14.05" r="8.16"/><text class="cls-12" transform="translate(472.02 23.31)">Fall</text><text class="cls-12" transform="translate(342.02 22.31)">Base</text><path class="cls-14" d="M945.33,183.38a8.16,8.16,0,1,1,8.16,8.16,8.16,8.16,0,0,1-8.16-8.16" transform="translate(-632.05 -169.04)"/></svg>