<svg id="Layer_1" data-name="Layer 1" xmlns="http://www.w3.org/2000/svg" viewBox="0 0 70.19 87.78"><defs><style>.cls-1{fill:#7477f1;}</style></defs><path class="cls-1" d="M979,541.28a2.14,2.14,0,0,0,0-2.33l-26.9-41.77,13.39.7a3.18,3.18,0,0,1,2.48,1.41L993.35,538a3.85,3.85,0,0,1,0,4.23L968,580.8a3.21,3.21,0,0,1-2.4,1.43l-13.57.84Z" transform="translate(-924.64 -496.24)"/><path class="cls-1" d="M953.67,498.11l11.74.62a2.29,2.29,0,0,1,1.81,1l25.42,38.71a3,3,0,0,1,0,3.29l-25.33,38.58a2.32,2.32,0,0,1-1.75,1l-11.89.73,26-40.37a3,3,0,0,0,0-3.25l-26-40.38m-3.22-1.87,1.79,2.79,26,40.38a1.33,1.33,0,0,1,0,1.41l-26,40.37L950.43,584l3.35-.21,11.88-.74a4,4,0,0,0,3.07-1.81l25.33-38.57a4.69,4.69,0,0,0,0-5.16l-25.42-38.71A4,4,0,0,0,965.5,497l-11.74-.61-3.31-.18Z" transform="translate(-924.64 -496.24)"/><path class="cls-1" d="M953.18,541.28a2.18,2.18,0,0,0,0-2.33l-26.9-41.77,13.39.7a3.21,3.21,0,0,1,2.48,1.41L967.57,538a3.87,3.87,0,0,1,0,4.23L942.23,580.8a3.19,3.19,0,0,1-2.39,1.43l-13.57.84Z" transform="translate(-924.64 -496.24)"/><path class="cls-1" d="M927.89,498.11l11.73.62a2.31,2.31,0,0,1,1.82,1l25.42,38.71a3,3,0,0,1,0,3.29l-25.34,38.58a2.32,2.32,0,0,1-1.75,1l-11.88.73,26-40.37a3,3,0,0,0,0-3.25l-26-40.38m-3.23-1.87,1.8,2.79,26,40.38a1.29,1.29,0,0,1,0,1.41l-26,40.37L924.64,584l3.35-.21,11.89-.74a4,4,0,0,0,3.07-1.81l25.33-38.57a4.69,4.69,0,0,0,0-5.16l-25.42-38.71a4,4,0,0,0-3.15-1.79L928,496.42l-3.32-.18Z" transform="translate(-924.64 -496.24)"/></svg>