<svg id="Layer_1" data-name="Layer 1" xmlns="http://www.w3.org/2000/svg" viewBox="0 0 700.76 299.5"><defs><style>.cls-1{fill:none;stroke:#ccc;stroke-dasharray:3 3;}.cls-2,.cls-3{isolation:isolate;}.cls-3{font-size:12px;font-family:ArialMT, Arial;}.cls-4{fill:#f59e0b;}.cls-5{fill:#f43f5e;}.cls-6{fill:#3b82f6;}.cls-7{font-size:26px;font-family:Arial-BoldMT, Arial;font-weight:700;}.cls-8{fill:red;}</style></defs><line class="cls-1" x1="51.04" y1="291.34" x2="699.95" y2="291.34"/><line class="cls-1" x1="51.04" y1="217.84" x2="699.95" y2="217.84"/><line class="cls-1" x1="51.04" y1="144.34" x2="699.95" y2="144.34"/><line class="cls-1" x1="51.04" y1="70.84" x2="699.95" y2="70.84"/><g class="cls-2"><text class="cls-3" transform="translate(23.36 295.6)">$ 0</text></g><g class="cls-2"><text class="cls-3" transform="translate(0 222.1)">$ 2,500</text></g><g class="cls-2"><text class="cls-3" transform="translate(0 148.6)">$ 5,000</text></g><g class="cls-2"><text class="cls-3" transform="translate(0 75.1)">$ 7,500</text></g><path class="cls-4" d="M370.07,794.37h31V908.11h-31Z" transform="translate(-306.05 -616.77)"/><path class="cls-4" d="M499.9,761.61h31v146.5h-31Z" transform="translate(-306.05 -616.77)"/><path class="cls-4" d="M629.73,862.63h31v45.48h-31Z" transform="translate(-306.05 -616.77)"/><path class="cls-4" d="M759.57,872.69h31v35.42h-31Z" transform="translate(-306.05 -616.77)"/><path class="cls-4" d="M889.4,659h31V908.11h-31Z" transform="translate(-306.05 -616.77)"/><path class="cls-5" d="M405.07,838.55h31v69.56h-31Z" transform="translate(-306.05 -616.77)"/><path class="cls-5" d="M534.9,871.31h31v36.8h-31Z" transform="translate(-306.05 -616.77)"/><path class="cls-5" d="M664.73,799.69h31V908.11h-31Z" transform="translate(-306.05 -616.77)"/><path class="cls-5" d="M794.57,777.87h31V908.11h-31Z" transform="translate(-306.05 -616.77)"/><path class="cls-5" d="M924.4,854.84h31v53.27h-31Z" transform="translate(-306.05 -616.77)"/><path class="cls-6" d="M440.07,724.81h31v183.3h-31Z" transform="translate(-306.05 -616.77)"/><path class="cls-6" d="M569.9,724.81h31v183.3h-31Z" transform="translate(-306.05 -616.77)"/><path class="cls-6" d="M699.73,724.81h31v183.3h-31Z" transform="translate(-306.05 -616.77)"/><path class="cls-6" d="M829.57,724.81h31v183.3h-31Z" transform="translate(-306.05 -616.77)"/><path class="cls-6" d="M959.4,724.81h31v183.3h-31Z" transform="translate(-306.05 -616.77)"/><path class="cls-4" d="M921.89,630.82a8.16,8.16,0,1,1,8.16,8.16,8.16,8.16,0,0,1-8.16-8.16" transform="translate(-306.05 -616.77)"/><text class="cls-7" transform="translate(645.84 23.31)">Rise</text><circle class="cls-8" cx="501.4" cy="14.05" r="8.16"/><text class="cls-7" transform="translate(524.27 23.31)">Fall</text><text class="cls-7" transform="translate(394.27 22.31)">Base</text><path class="cls-6" d="M671.58,631.11a8.16,8.16,0,1,1,8.16,8.16,8.16,8.16,0,0,1-8.16-8.16" transform="translate(-306.05 -616.77)"/></svg>