<svg id="Layer_1" data-name="Layer 1" xmlns="http://www.w3.org/2000/svg" viewBox="0 0 364 364"><defs><style>.cls-1{isolation:isolate;font-size:36px;font-family:ArialMT, Arial;}.cls-2{fill:#64748b;}.cls-3{fill:#8b5cf6;}.cls-4{fill:#6366f1;}.cls-5{fill:#f43f5e;}.cls-6{fill:#06b6d4;}.cls-7{fill:#f59e0b;}</style></defs><text class="cls-1" transform="translate(114.21 194.34)">$ 24,481</text><path class="cls-2" d="M631.48,183.74A182,182,0,0,1,738.17,513.19L711.5,476.33a136.5,136.5,0,0,0-80-247.09Z" transform="translate(-449.48 -183.74)"/><path class="cls-3" d="M738.17,513.19A182,182,0,0,1,537,521.3l23.61-38.89a136.52,136.52,0,0,0,150.88-6.08Z" transform="translate(-449.48 -183.74)"/><path class="cls-4" d="M537,521.3a182,182,0,0,1-87.49-151.56l45.49-1a136.52,136.52,0,0,0,65.61,113.67Z" transform="translate(-449.48 -183.74)"/><path class="cls-5" d="M449.52,369.74a182,182,0,0,1,31.13-105.86l37.71,25.47A136.5,136.5,0,0,0,495,368.74Z" transform="translate(-449.48 -183.74)"/><path class="cls-6" d="M480.65,263.88a182,182,0,0,1,65.64-59l21.29,40.21a136.49,136.49,0,0,0-49.22,44.23Z" transform="translate(-449.48 -183.74)"/><path class="cls-7" d="M546.29,204.91a182,182,0,0,1,85.19-21.17v45.5a136.49,136.49,0,0,0-63.9,15.88Z" transform="translate(-449.48 -183.74)"/></svg>