<svg id="Layer_1" data-name="Layer 1" xmlns="http://www.w3.org/2000/svg" viewBox="0 0 493.65 375.56"><defs><style>.cls-1,.cls-2,.cls-5,.cls-6{fill:none;}.cls-1,.cls-2{stroke:#4d4d4d;stroke-linejoin:bevel;stroke-width:3px;}.cls-2{stroke-dasharray:2.98 5.96;}.cls-3,.cls-4{isolation:isolate;}.cls-4{font-size:29.67px;}.cls-4,.cls-7{font-family:Arial-BoldMT, Arial;font-weight:700;}.cls-5{stroke:#6366f1;}.cls-5,.cls-6{stroke-linecap:round;stroke-linejoin:round;stroke-width:8px;}.cls-6{stroke:red;}.cls-7{font-size:28.49px;}.cls-8{fill:#4d4d4d;}.cls-9{fill:#6366f1;}.cls-10{fill:red;}</style></defs><line class="cls-1" x1="91.29" y1="305.03" x2="92.79" y2="305.03"/><line class="cls-2" x1="98.75" y1="305.03" x2="488.98" y2="305.03"/><line class="cls-1" x1="491.96" y1="305.03" x2="493.46" y2="305.03"/><line class="cls-1" x1="91.29" y1="196" x2="92.79" y2="196"/><line class="cls-2" x1="98.75" y1="196" x2="488.98" y2="196"/><line class="cls-1" x1="491.96" y1="196" x2="493.46" y2="196"/><line class="cls-1" x1="91.29" y1="86.97" x2="92.79" y2="86.97"/><line class="cls-2" x1="98.75" y1="86.97" x2="488.98" y2="86.97"/><line class="cls-1" x1="491.96" y1="86.97" x2="493.46" y2="86.97"/><g class="cls-3"><text class="cls-4" transform="translate(105.61 364.39)">1970</text></g><g class="cls-3"><text class="cls-4" transform="translate(393.02 364.39)">1971</text></g><path class="cls-5" d="M1019.51,217.62,1114,233.48h94.52l94.52,5.94,94.52,9.92" transform="translate(-916.35 -86.25)"/><path class="cls-6" d="M1021.35,197l94.52-9.91,92.67,135.59,94.52,59.47L1399.42,308" transform="translate(-916.35 -86.25)"/><text class="cls-7" transform="translate(0 86.8)">$ 1.65</text><text class="cls-7" transform="translate(17.8 196.57)">$ 1.1</text><text class="cls-7" transform="translate(0 304.86)">$ 0.55</text><path class="cls-8" d="M1131.63,107.6V86.36h2.81V107.6Z" transform="translate(-916.35 -86.25)"/><path class="cls-8" d="M1139.06,107.6V92.21h2.35V94.4a5.53,5.53,0,0,1,4.89-2.54,6.49,6.49,0,0,1,2.56.5,4,4,0,0,1,1.74,1.32,5.06,5.06,0,0,1,.82,1.92,15.86,15.86,0,0,1,.14,2.54v9.46H1149V98.24a7.08,7.08,0,0,0-.3-2.38,2.45,2.45,0,0,0-1.08-1.26,3.39,3.39,0,0,0-1.82-.48,4.23,4.23,0,0,0-2.87,1.06c-.81.71-1.21,2-1.21,4v8.41Z" transform="translate(-916.35 -86.25)"/><path class="cls-8" d="M1165.6,102l2.56.33a6.69,6.69,0,0,1-2.15,4.16,6.3,6.3,0,0,1-4.25,1.49,6.59,6.59,0,0,1-5.08-2.06,8.38,8.38,0,0,1-1.92-5.92,10.73,10.73,0,0,1,.83-4.36,5.78,5.78,0,0,1,2.51-2.8,7.51,7.51,0,0,1,3.67-.94,6.41,6.41,0,0,1,4.1,1.27,5.86,5.86,0,0,1,2.05,3.6l-2.54.39a4.22,4.22,0,0,0-1.28-2.33,3.33,3.33,0,0,0-2.23-.78,4.05,4.05,0,0,0-3.2,1.41,6.71,6.71,0,0,0-1.23,4.47,7,7,0,0,0,1.19,4.51,3.87,3.87,0,0,0,3.1,1.4,3.63,3.63,0,0,0,2.56-.94A4.69,4.69,0,0,0,1165.6,102Z" transform="translate(-916.35 -86.25)"/><path class="cls-8" d="M1169.42,99.9c0-2.84.79-5,2.38-6.33a7.14,7.14,0,0,1,4.84-1.71,6.92,6.92,0,0,1,5.18,2.08,7.89,7.89,0,0,1,2,5.75,10.1,10.1,0,0,1-.9,4.67,6.28,6.28,0,0,1-2.59,2.64,7.5,7.5,0,0,1-3.71.94,6.93,6.93,0,0,1-5.23-2.07A8.31,8.31,0,0,1,1169.42,99.9Zm2.68,0a6.56,6.56,0,0,0,1.29,4.43,4.3,4.3,0,0,0,6.48,0,6.68,6.68,0,0,0,1.29-4.5,6.38,6.38,0,0,0-1.3-4.33,4.29,4.29,0,0,0-6.47,0A6.49,6.49,0,0,0,1172.1,99.9Z" transform="translate(-916.35 -86.25)"/><path class="cls-8" d="M1186.89,107.6V92.21h2.33v2.16a5.62,5.62,0,0,1,1.93-1.82,5.41,5.41,0,0,1,2.74-.69,5.08,5.08,0,0,1,2.8.71,3.85,3.85,0,0,1,1.55,2,5.51,5.51,0,0,1,4.75-2.7,4.71,4.71,0,0,1,3.52,1.27,5.44,5.44,0,0,1,1.23,3.91V107.6h-2.59V97.91a7.09,7.09,0,0,0-.26-2.26,2.16,2.16,0,0,0-.92-1.11,2.84,2.84,0,0,0-1.56-.42,3.66,3.66,0,0,0-2.7,1.08,4.78,4.78,0,0,0-1.07,3.46v8.94H1196v-10a4.45,4.45,0,0,0-.63-2.61,2.42,2.42,0,0,0-2.09-.87,3.89,3.89,0,0,0-2,.58,3.3,3.3,0,0,0-1.35,1.7,9.49,9.49,0,0,0-.42,3.21v8Z" transform="translate(-916.35 -86.25)"/><path class="cls-8" d="M1222.14,102.64l2.69.34a6.55,6.55,0,0,1-2.36,3.66,8,8,0,0,1-9.76-.77,8.16,8.16,0,0,1-2-5.83,8.48,8.48,0,0,1,2-6,6.76,6.76,0,0,1,5.18-2.15,6.54,6.54,0,0,1,5,2.11,8.28,8.28,0,0,1,2,5.91c0,.15,0,.38,0,.69h-11.47a5.91,5.91,0,0,0,1.44,3.88,4.24,4.24,0,0,0,3.21,1.35,4,4,0,0,0,2.45-.75A5.06,5.06,0,0,0,1222.14,102.64Zm-8.56-4.21h8.59a5.21,5.21,0,0,0-1-2.91A4,4,0,0,0,1218,94a4.15,4.15,0,0,0-3,1.2A4.7,4.7,0,0,0,1213.58,98.43Z" transform="translate(-916.35 -86.25)"/><circle class="cls-9" cx="193.07" cy="10.9" r="8.16"/><circle class="cls-10" cx="357.72" cy="10.9" r="8.16"/><path class="cls-8" d="M1298.12,107.49V86.25h15.36v2.51h-12.55v6.5h11.75v2.49h-11.75V105h13v2.51Z" transform="translate(-916.35 -86.25)"/><path class="cls-8" d="M1315.78,107.49l5.62-8-5.2-7.39h3.26l2.36,3.61c.45.68.8,1.26,1.07,1.72.43-.63.82-1.2,1.18-1.69l2.59-3.64h3.11l-5.31,7.24,5.72,8.15H1327l-3.16-4.78-.84-1.29-4,6.07Z" transform="translate(-916.35 -86.25)"/><path class="cls-8" d="M1332.35,113.38V92.1h2.38v2a5.82,5.82,0,0,1,1.9-1.76,5.21,5.21,0,0,1,2.56-.59,6.08,6.08,0,0,1,3.48,1,6.2,6.2,0,0,1,2.27,2.86,10.47,10.47,0,0,1,.77,4.05,10.21,10.21,0,0,1-.85,4.25,6.41,6.41,0,0,1-5.86,3.9,4.87,4.87,0,0,1-2.34-.55,5.3,5.3,0,0,1-1.7-1.39v7.49Zm2.36-13.5a6.71,6.71,0,0,0,1.21,4.39,3.67,3.67,0,0,0,2.91,1.42,3.78,3.78,0,0,0,3-1.47,7,7,0,0,0,1.23-4.56,6.77,6.77,0,0,0-1.21-4.4,3.62,3.62,0,0,0-2.89-1.46,3.75,3.75,0,0,0-2.94,1.55A7,7,0,0,0,1334.71,99.88Z" transform="translate(-916.35 -86.25)"/><path class="cls-8" d="M1359.38,102.53l2.7.33a6.59,6.59,0,0,1-2.36,3.67,7.11,7.11,0,0,1-4.41,1.3,7,7,0,0,1-5.35-2.08,8.09,8.09,0,0,1-2-5.83,8.51,8.51,0,0,1,2-6,6.78,6.78,0,0,1,5.19-2.15,6.57,6.57,0,0,1,5,2.1,8.36,8.36,0,0,1,2,5.91c0,.16,0,.39,0,.7h-11.47a5.92,5.92,0,0,0,1.43,3.88,4.27,4.27,0,0,0,3.22,1.35,4,4,0,0,0,2.45-.75A5.05,5.05,0,0,0,1359.38,102.53Zm-8.56-4.21h8.59a5.19,5.19,0,0,0-1-2.92,4,4,0,0,0-3.23-1.5,4.13,4.13,0,0,0-3,1.2A4.75,4.75,0,0,0,1350.82,98.32Z" transform="translate(-916.35 -86.25)"/><path class="cls-8" d="M1365.35,107.49V92.1h2.35v2.19a5.53,5.53,0,0,1,4.9-2.54,6.44,6.44,0,0,1,2.55.5,4.1,4.1,0,0,1,1.75,1.31,5,5,0,0,1,.81,1.93,14.73,14.73,0,0,1,.14,2.54v9.46h-2.6V98.13a6.89,6.89,0,0,0-.31-2.39,2.53,2.53,0,0,0-1.08-1.26,3.44,3.44,0,0,0-1.81-.47,4.25,4.25,0,0,0-2.88,1.06c-.81.71-1.21,2-1.21,4v8.41Z" transform="translate(-916.35 -86.25)"/><path class="cls-8" d="M1380.81,102.89l2.58-.4a3.58,3.58,0,0,0,1.21,2.37,4.2,4.2,0,0,0,2.77.83A4.07,4.07,0,0,0,1390,105a2.19,2.19,0,0,0,.87-1.72,1.59,1.59,0,0,0-.77-1.39,11.2,11.2,0,0,0-2.67-.88,24.1,24.1,0,0,1-4-1.26,3.83,3.83,0,0,1-1.68-1.46,3.88,3.88,0,0,1-.58-2.06,3.92,3.92,0,0,1,.48-1.91,4.15,4.15,0,0,1,1.28-1.45,5.14,5.14,0,0,1,1.66-.76,7.79,7.79,0,0,1,2.25-.32,8.83,8.83,0,0,1,3.18.53,4.26,4.26,0,0,1,2,1.41,5.64,5.64,0,0,1,.9,2.38l-2.55.35a2.82,2.82,0,0,0-1-1.86,3.69,3.69,0,0,0-2.35-.66,4.32,4.32,0,0,0-2.57.59,1.73,1.73,0,0,0-.76,1.39,1.48,1.48,0,0,0,.31.92,2.34,2.34,0,0,0,1,.69c.26.1,1,.32,2.31.67a30.8,30.8,0,0,1,3.86,1.21,3.83,3.83,0,0,1,1.71,1.37,3.76,3.76,0,0,1,.63,2.23,4.42,4.42,0,0,1-.76,2.45,4.91,4.91,0,0,1-2.2,1.78,8,8,0,0,1-3.24.63,7.21,7.21,0,0,1-4.57-1.24A5.78,5.78,0,0,1,1380.81,102.89Z" transform="translate(-916.35 -86.25)"/><path class="cls-8" d="M1407.22,102.53l2.69.33a6.54,6.54,0,0,1-2.36,3.67,7.1,7.1,0,0,1-4.4,1.3,7,7,0,0,1-5.35-2.08,8.09,8.09,0,0,1-2-5.83,8.47,8.47,0,0,1,2-6,6.76,6.76,0,0,1,5.18-2.15,6.57,6.57,0,0,1,5,2.1,8.32,8.32,0,0,1,2,5.91c0,.16,0,.39,0,.7h-11.48a5.93,5.93,0,0,0,1.44,3.88,4.26,4.26,0,0,0,3.21,1.35,4,4,0,0,0,2.45-.75A5.06,5.06,0,0,0,1407.22,102.53Zm-8.56-4.21h8.59a5.27,5.27,0,0,0-1-2.92,4,4,0,0,0-3.23-1.5,4.15,4.15,0,0,0-3,1.2A4.74,4.74,0,0,0,1398.66,98.32Z" transform="translate(-916.35 -86.25)"/></svg>