<svg id="Layer_1"
 data-name="Layer 1" 
 xmlns="http://www.w3.org/2000/svg" viewBox="0 0 447.19 97.3">
 <defs>
 <style>.cls-1{fill:#fff;}.cls-2{fill:none;stroke:#fff;stroke-miterlimit:10;stroke-width:2.2px;}</style>
 </defs>
 <path class="cls-1" d="M172.28,53.51,155.16,51.2a29.08,29.08,0,0,1,2.79-9,17.21,17.21,0,0,1,5.26-5.7A18.74,18.74,0,0,1,170,33.8a42.84,42.84,0,0,1,9.33-1A59,59,0,0,1,192.26,34a15.45,15.45,0,0,1,8.14,4.8A18,18,0,0,1,204,46a32.31,32.31,0,0,1,1.32,8.85V81.13a40.16,40.16,0,0,0,.42,6.6,35.13,35.13,0,0,0,1.83,6.09H190.76a23.29,23.29,0,0,1-1.32-3.51,31.72,31.72,0,0,1-.62-3.79,23.9,23.9,0,0,1-7,6.18,23.59,23.59,0,0,1-11.05,2.47q-8.35,0-12.69-4.94A17.83,17.83,0,0,1,153.75,78q0-6.78,3.13-11.17t11.53-6.51q10.07-2.58,13.06-3.63A52.07,52.07,0,0,0,187.81,54q0-4.21-1.36-5.89t-4.8-1.69q-4.4,0-6.6,1.8C173.91,49.16,173,50.92,172.28,53.51Zm15.53,12a69.42,69.42,0,0,1-7.7,3q-5.46,1.84-6.91,3.65a7,7,0,0,0,0,8.62,5.41,5.41,0,0,0,4.33,1.71,9.38,9.38,0,0,0,5.57-1.85,10.27,10.27,0,0,0,3.65-4.52,18.75,18.75,0,0,0,1.08-6.94Z" transform="translate(-8.64 -2.99)"/><path class="cls-1" d="M216.24,34.19H233V44q2.42-6.35,5-8.73a9,9,0,0,1,6.35-2.39c2.64,0,8.66,2.27,11.8,4.36l-5.68,15c-2.11-1.12-6.78-1.61-8-1.61q-3.51,0-5.45,3.7-2.77,5.22-2.78,19.54v20h-18Z" transform="translate(-8.64 -2.99)"/><path class="cls-1" d="M259.05,11.5h18.31V54l13.37-19.81h22l-23.47,29,24.44,30.62H293.57L278.89,75.2l-1.53,1.13V93.82H259.05Z" transform="translate(-8.64 -2.99)"/><path class="cls-1" d="M319.82,34.19h17.91V93.82H319.82Z" transform="translate(-8.64 -2.99)"/><path class="cls-1" d="M343.89,34.19h18.63L371.59,72,381,34.19h18.08L379.21,93.82H363.32Z" transform="translate(-8.64 -2.99)"/><path class="cls-1" d="M420.54,53.51,403.42,51.2a28.8,28.8,0,0,1,2.8-9,17.1,17.1,0,0,1,5.26-5.7,18.69,18.69,0,0,1,6.77-2.69,43,43,0,0,1,9.33-1A59,59,0,0,1,440.52,34a15.42,15.42,0,0,1,8.14,4.8A18,18,0,0,1,452.27,46a32.31,32.31,0,0,1,1.32,8.85V81.13a40.36,40.36,0,0,0,.41,6.6,35.13,35.13,0,0,0,1.83,6.09H439a25.76,25.76,0,0,1-1.32-3.51,34,34,0,0,1-.62-3.79,20.71,20.71,0,0,1-18,8.65q-8.35,0-12.69-4.94A17.82,17.82,0,0,1,402,78a18.81,18.81,0,0,1,3.12-11.17q3.12-4.38,11.53-6.51,10.08-2.58,13.07-3.63A52.65,52.65,0,0,0,436.07,54q0-4.21-1.36-5.89t-4.8-1.69q-4.4,0-6.6,1.8C422.17,49.16,421.24,50.92,420.54,53.51Zm15.53,12a69.42,69.42,0,0,1-7.7,3c-3.63,1.23-5.94,2.45-6.91,3.65a7,7,0,0,0,0,8.62,5.41,5.41,0,0,0,4.34,1.71,9.35,9.35,0,0,0,5.56-1.85A10.3,10.3,0,0,0,435,76.11a19,19,0,0,0,1.07-6.94Z" transform="translate(-8.64 -2.99)"/><circle class="cls-1" cx="320.19" cy="16.21" r="9"/><path class="cls-2" d="M111.2,40.74l-.44.39q-6,6-12,12.06a1.34,1.34,0,0,0-.31.85q0,22.26,0,44.54v.6h16.16V44.83a1.26,1.26,0,0,0,0-.34,1.13,1.13,0,0,0-.21-.5C113.32,42.91,112.28,41.85,111.2,40.74ZM64.13,4.19v.09c-.49,0-1,0-1.48,0-.76,0-.93.21-1,1,0,.3,0,.61,0,.91,0,.8-.08,1.6-.11,2.4a1.07,1.07,0,0,1-.69,1c-.65.3-1.3.64-2,.93a9.29,9.29,0,0,0-6,8,8.13,8.13,0,0,0,2.92,7.65,20.13,20.13,0,0,0,3.37,2.24c1.79.92,3.69,1.61,5.49,2.51a11.89,11.89,0,0,1,2.65,1.85,2.59,2.59,0,0,1,.8,2.61A3.57,3.57,0,0,1,65.59,38a9.09,9.09,0,0,1-5.46.14c-1.69-.46-3.33-1.06-5-1.63-1.1-.38-1.17-.4-1.52.68-.47,1.46-.91,2.94-1.33,4.42a.81.81,0,0,0,.16.59,5.31,5.31,0,0,0,2.79,1.59c1.62.48,3.27.87,4.91,1.27a1,1,0,0,1,.85,1c0,1,.06,2.06.17,3.08a1.22,1.22,0,0,0,1.3,1.26,27.41,27.41,0,0,0,3.14,0c.88-.06,1.23-.46,1.32-1.36.07-.66.07-1.33.1-2,.1-2.37,0-2.09,2.1-3.12a18.18,18.18,0,0,0,3.17-1.78,9.42,9.42,0,0,0,3.9-8.72,10.15,10.15,0,0,0-4.77-7.69,43.14,43.14,0,0,0-6.28-3.11,14.75,14.75,0,0,1-3.3-2A2.64,2.64,0,0,1,63,16a5,5,0,0,1,1-.2,16.12,16.12,0,0,1,7.17,1.06,7.16,7.16,0,0,0,1.41.43.79.79,0,0,0,.67-.33q.75-2.42,1.4-4.86A.92.92,0,0,0,74,11a18.09,18.09,0,0,0-2-.77c-1.31-.39-2.65-.71-4-1.06a.79.79,0,0,1-.66-.81c0-1-.09-1.94-.19-2.9a1.06,1.06,0,0,0-1.06-1.08C65.46,4.28,64.79,4.25,64.13,4.19Zm30.15,95V57.79l-.19-.09a3.08,3.08,0,0,1-.37.5q-7.55,7.54-15.1,15.06a1.34,1.34,0,0,0-.43,1q0,12.09,0,24.18v.7Zm-40.23,0c0-.29,0-.46,0-.63q.06-9.81.1-19.61a1.2,1.2,0,0,0-.33-.78Q46.17,70.4,38.45,62.7c-.11-.1-.24-.19-.38-.31V99.14ZM33.93,64.48l-.23-.13a7.3,7.3,0,0,1-.6.75c-4,4-8,7.91-12,11.81a16.07,16.07,0,0,1-2.72,2,.88.88,0,0,0-.51.88q0,9.41,0,18.81v.63h16.1ZM74.09,77.86c-.24.23-.4.36-.54.5-1.23,1.19-2.42,2.42-3.7,3.57a8.64,8.64,0,0,1-11,1l-.73-.45v16.7h16Z" transform="translate(-8.64 -2.99)"/><path class="cls-2" d="M9.74,69.11A9.27,9.27,0,0,1,12,65.88C15.87,62,19.71,58,23.59,54.14c3.29-3.28,6.65-6.5,10-9.73a15,15,0,0,1,1.93-1.52,2.39,2.39,0,0,1,2.89,0,25.47,25.47,0,0,1,2.9,2.4c3.48,3.38,6.94,6.8,10.39,10.22,3.91,3.89,7.79,7.79,11.69,11.68.13.14.27.26.37.36l40.39-40.39c-.11-.11-.24-.26-.39-.4C101.9,24.86,100,23,98.17,21a2,2,0,0,1-.71-1.5A1.84,1.84,0,0,1,99,17.82c2.09-.12,4.17-.36,6.26-.46,4.57-.22,9.14-.38,13.71-.56a9.84,9.84,0,0,1,1.09,0,1.73,1.73,0,0,1,1.77,1.89c-.11,3.45-.22,6.89-.38,10.34-.14,3-.37,6-.52,9a3,3,0,0,1-1.21,2.56,1.22,1.22,0,0,1-1.68,0c-.8-.61-1.55-1.28-2.29-2-1.25-1.17-2.47-2.38-3.7-3.57-.28-.27-.57-.51-.91-.81-.29.27-.57.51-.83.77l-23,22.79L67.58,77.45C67,78,66.43,78.52,65.83,79a2.76,2.76,0,0,1-3.68.13,47.7,47.7,0,0,1-4.08-3.56c-6.54-6.43-13-12.9-19.56-19.34-.49-.49-1-1-1.54-1.46-.41.38-.81.72-1.18,1.09L20.45,71c-.86.84-1.79,1.61-2.58,2.51A4,4,0,0,1,14,74.67a3.46,3.46,0,0,1-1.89-1,8.66,8.66,0,0,1-2.33-3.53Z" transform="translate(-8.64 -2.99)"/><path class="cls-2" d="M111.2,40.74c1.08,1.11,2.12,2.17,3.14,3.25a1.13,1.13,0,0,1,.21.5,1.26,1.26,0,0,1,0,.34V99.18H98.4v-.6q0-22.27,0-44.54a1.34,1.34,0,0,1,.31-.85q6-6,12-12.06Z" transform="translate(-8.64 -2.99)"/><path class="cls-2" d="M64.13,4.19c.66.06,1.33.09,2,.19a1.06,1.06,0,0,1,1.06,1.08c.1,1,.15,1.93.19,2.9a.79.79,0,0,0,.66.81c1.32.35,2.66.67,4,1.06A18.09,18.09,0,0,1,74,11a.92.92,0,0,1,.66,1.12Q74,14.57,73.21,17a.79.79,0,0,1-.67.33,7.16,7.16,0,0,1-1.41-.43A16.12,16.12,0,0,0,64,15.82a5,5,0,0,0-1,.2,2.64,2.64,0,0,0-1.09,4.65,14.75,14.75,0,0,0,3.3,2,43.14,43.14,0,0,1,6.28,3.11,10.15,10.15,0,0,1,4.77,7.69,9.42,9.42,0,0,1-3.9,8.72A18.18,18.18,0,0,1,69.14,44c-2.13,1-2,.75-2.1,3.12,0,.66,0,1.33-.1,2-.09.9-.44,1.3-1.32,1.36a27.41,27.41,0,0,1-3.14,0,1.22,1.22,0,0,1-1.3-1.26c-.11-1-.13-2-.17-3.08a1,1,0,0,0-.85-1c-1.64-.4-3.29-.79-4.91-1.27a5.31,5.31,0,0,1-2.79-1.59.81.81,0,0,1-.16-.59c.42-1.48.86-3,1.33-4.42.35-1.08.42-1.06,1.52-.68,1.65.57,3.29,1.17,5,1.63A9.09,9.09,0,0,0,65.59,38,3.57,3.57,0,0,0,68,35.39a2.59,2.59,0,0,0-.8-2.61,11.89,11.89,0,0,0-2.65-1.85c-1.8-.9-3.7-1.59-5.49-2.51a20.13,20.13,0,0,1-3.37-2.24,8.13,8.13,0,0,1-2.92-7.65,9.29,9.29,0,0,1,6-8c.66-.29,1.31-.63,2-.93a1.07,1.07,0,0,0,.69-1c0-.8.08-1.6.11-2.4,0-.3,0-.61,0-.91.1-.74.27-.91,1-1,.49,0,1,0,1.48,0Z" transform="translate(-8.64 -2.99)"/><path class="cls-2" d="M94.28,99.19H78.19v-.7q0-12.09,0-24.18a1.34,1.34,0,0,1,.43-1q7.56-7.51,15.1-15.06a3.08,3.08,0,0,0,.37-.5l.19.09Z" transform="translate(-8.64 -2.99)"/><path class="cls-2" d="M54.05,99.14h-16V62.39c.14.12.27.21.38.31q7.71,7.71,15.4,15.42a1.2,1.2,0,0,1,.33.78q0,9.81-.1,19.61C54.08,98.68,54.07,98.85,54.05,99.14Z" transform="translate(-8.64 -2.99)"/><path class="cls-2" d="M33.93,64.48V99.19H17.83v-.63q0-9.41,0-18.81a.88.88,0,0,1,.51-.88,16.07,16.07,0,0,0,2.72-2c4-3.9,8-7.86,12-11.81a7.3,7.3,0,0,0,.6-.75Z" transform="translate(-8.64 -2.99)"/><path class="cls-2" d="M74.09,77.86V99.15h-16V82.45l.73.45a8.64,8.64,0,0,0,11-1c1.28-1.15,2.47-2.38,3.7-3.57C73.69,78.22,73.85,78.09,74.09,77.86Z"
 transform="translate(-8.64 -2.99)"/></svg>