<svg id="Layer_1" data-name="Layer 1" xmlns="http://www.w3.org/2000/svg" viewBox="0 0 312.73 72.12"><defs><style>.cls-1{fill:#1a202e;}.cls-2{fill:#7477f1;}</style></defs><path class="cls-1" d="M933.72,592.4c11.94-11.43,27-10.23,32.68,3,5-6.81,11.08-11.38,20-10.61,7.68.66,12.87,4.63,14.37,12.15,2.52,12.65,1,25.49,1,38.25,0,3.4-2.88,5.13-6.36,4.86s-5.47-2.4-5.54-5.86c-.13-6.81,0-13.62-.07-20.43,0-2.5.08-5-.1-7.48-.49-6.88-3.64-10.19-9.64-10.29-6.83-.12-11.78,3.9-12.08,10.48-.36,8-.16,15.94-.24,23.92a27.29,27.29,0,0,1-.34,4.95c-.62,3.24-2.75,4.88-6,4.73s-5.46-1.82-5.6-5.16c-.28-6.46-.29-12.93-.4-19.4,0-3.16.09-6.33-.15-9.47-.54-7-3.14-9.81-9.17-10-6.66-.27-11.45,3.32-12.3,9.66-1.11,8.26-.25,16.59-.49,24.89a27.05,27.05,0,0,1-.29,5,5.37,5.37,0,0,1-5.14,4.6c-3,.21-5.25-.84-6.16-3.89a12.09,12.09,0,0,1-.64-3.39c-.05-13.29-.12-26.58,0-39.87.06-5.66,4.31-8.58,8.92-6.58C932.49,587.41,932.87,589.74,933.72,592.4Z" transform="translate(-808.06 -568.98)"/><path class="cls-1" d="M1092.88,641.1a27.63,27.63,0,0,1-27.83-28.26c.18-16,12.4-28.33,28-28.13,15.94.21,27.81,12.29,27.76,28.27S1108.79,641.12,1092.88,641.1Zm-15.28-28.62c-.1,9.9,6.23,17.26,15,17.48s15.81-7.32,15.87-16.86c.07-9.74-6.55-17.08-15.45-17.13S1077.7,602.88,1077.6,612.48Z" transform="translate(-808.06 -568.98)"/><path class="cls-1" d="M1040.84,592.3c4.29-5,9-7.38,14.84-7.56,3-.09,5.64.57,7.33,3.29,1.4,2.26.9,4.53-.54,6.51-1.88,2.59-4.56,2.09-7.25,1.59-8.68-1.6-14,2.14-14.49,11-.49,7.94-.22,15.92-.29,23.89,0,2.15.07,4.35-1.11,6.26a5.64,5.64,0,0,1-6.4,2.74c-3.3-.69-4.7-3.14-4.8-6.15-.2-5.64-.07-11.29-.07-16.94,0-7.47,0-14.94,0-22.41,0-3.82.19-7.59,4.88-8.56C1037.41,585,1039.59,587.72,1040.84,592.3Z" transform="translate(-808.06 -568.98)"/><path class="cls-1" d="M902.27,613c0-6.63,0-13.26,0-19.89.05-4.06,1.47-7.43,6.16-7.38s6.19,3.36,6.22,7.42c.07,13.09.1,26.19,0,39.28,0,5.29-2.3,7.76-6.47,7.57-4.85-.23-5.86-3.64-5.9-7.6C902.22,626,902.27,619.49,902.27,613Z" transform="translate(-808.06 -568.98)"/><path class="cls-1" d="M1009.21,612.92c0-6.63,0-13.26,0-19.89,0-4.13,1.66-7.33,6.29-7.27s6.1,3.4,6.11,7.48q0,19.65,0,39.29c0,4-1.21,7.31-6,7.49-4.06.16-6.31-2.53-6.38-7.7C1009.14,625.86,1009.2,619.39,1009.21,612.92Z" transform="translate(-808.06 -568.98)"/><path class="cls-1" d="M1015.34,582c-4.59,0-6.3-1.75-6.39-6.18-.08-4.63,2.43-5.9,6.6-6,4.35,0,6.41,1.65,6.45,6.11C1022.05,580.71,1019.35,582,1015.34,582Z" transform="translate(-808.06 -568.98)"/><path class="cls-1" d="M908,582.11c-4.59,0-6.3-1.74-6.38-6.18-.09-4.63,2.42-5.9,6.59-5.94,4.35,0,6.41,1.65,6.45,6.1C914.71,580.79,912,582.07,908,582.11Z" transform="translate(-808.06 -568.98)"/><polyline class="cls-1" points="21.88 71.08 1.88 71.08 1.88 57.02"/><polyline class="cls-1" points="66.88 71.08 85.88 71.08 85.88 57.02"/><path class="cls-2" d="M852,638.32a3.9,3.9,0,0,1-2.12-.63l-38.57-25.33a3.17,3.17,0,0,1-1.42-2.4L809,596.39,850.8,623.3a2.17,2.17,0,0,0,2.33,0l41.77-26.9-.7,13.39a3.19,3.19,0,0,1-1.4,2.48l-38.72,25.42A3.86,3.86,0,0,1,852,638.32Z" transform="translate(-808.06 -568.98)"/><path class="cls-2" d="M894,598l-.61,11.74a2.34,2.34,0,0,1-1,1.81L853.61,637a2.94,2.94,0,0,1-1.64.49,3,3,0,0,1-1.65-.49l-38.57-25.33a2.33,2.33,0,0,1-1-1.76L810,598l40.37,26a3.08,3.08,0,0,0,1.63.47,3,3,0,0,0,1.62-.47L894,598m-85.91-3.25.21,3.36L809,610a4,4,0,0,0,1.81,3.07l38.57,25.33a4.71,4.71,0,0,0,5.16,0L893.26,613a4,4,0,0,0,1.79-3.14l.62-11.74.17-3.31-2.79,1.79-40.38,26a1.32,1.32,0,0,1-.7.2,1.36,1.36,0,0,1-.71-.2l-40.37-26-2.83-1.82Z" transform="translate(-808.06 -568.98)"/><path class="cls-2" d="M852,612.54a3.9,3.9,0,0,1-2.12-.63l-38.57-25.34a3.15,3.15,0,0,1-1.42-2.39L809,570.6l41.78,26.92a2.17,2.17,0,0,0,2.33,0l41.77-26.91-.7,13.4a3.17,3.17,0,0,1-1.4,2.47l-38.72,25.43A3.86,3.86,0,0,1,852,612.54Z" transform="translate(-808.06 -568.98)"/><path class="cls-2" d="M894,572.23,893.36,584a2.35,2.35,0,0,1-1,1.82L853.61,611.2a3,3,0,0,1-1.64.49,3,3,0,0,1-1.65-.5l-38.57-25.33a2.33,2.33,0,0,1-1-1.75L810,572.23l40.37,26a3,3,0,0,0,1.63.48,3,3,0,0,0,1.62-.48l40.38-26M808.06,569l.21,3.35.74,11.88a4,4,0,0,0,1.81,3.08l38.57,25.33a4.71,4.71,0,0,0,5.16,0l38.71-25.42a4,4,0,0,0,1.79-3.15l.62-11.73.17-3.32-2.79,1.8-40.38,26a1.25,1.25,0,0,1-.7.21,1.28,1.28,0,0,1-.71-.21l-40.37-26L808.06,569Z" transform="translate(-808.06 -568.98)"/></svg>