<svg xmlns="http://www.w3.org/2000/svg" xmlns:xlink="http://www.w3.org/1999/xlink" viewBox="0 0 910.6 242.24"><defs><style>.cls-1{font-size:185px;font-family:Outfit-SemiBold, Outfit;font-weight:600;}.cls-2{letter-spacing:-0.03em;}.cls-3{letter-spacing:0em;}.cls-4{fill:url(#linear-gradient);}.cls-5{fill:url(#linear-gradient-2);}.cls-6{fill:url(#linear-gradient-3);}.cls-7{fill:url(#linear-gradient-4);}.cls-8{fill:url(#linear-gradient-5);}</style><linearGradient id="linear-gradient" x1="88.93" y1="186.23" x2="88.73" y2="196.88" gradientUnits="userSpaceOnUse"><stop offset="0" stop-color="#8284f4"/><stop offset="1" stop-color="#6e71f1"/></linearGradient><linearGradient id="linear-gradient-2" x1="137.28" y1="152.53" x2="137.21" y2="177.84" xlink:href="#linear-gradient"/><linearGradient id="linear-gradient-3" x1="185.83" y1="126.78" x2="185.69" y2="151.95" xlink:href="#linear-gradient"/><linearGradient id="linear-gradient-4" x1="234.44" y1="100.15" x2="234.37" y2="125.39" xlink:href="#linear-gradient"/><linearGradient id="linear-gradient-5" x1="-20.29" y1="127.1" x2="245.91" y2="35.24" xlink:href="#linear-gradient"/></defs><g id="Layer_2" data-name="Layer 2"><g id="Layer_1-2" data-name="Layer 1"><text class="cls-1" transform="translate(318.24 171.57)">mimi<tspan class="cls-2" x="412.54" y="0">r</tspan><tspan class="cls-3" x="487.1" y="0">o</tspan></text><polygon class="cls-4" points="76.1 215.8 101.2 215.8 101.18 166.62 76.1 185.76 76.1 215.8"/><polygon class="cls-5" points="149.97 130.96 149.68 216.29 124.91 216.17 124.66 149.65 149.97 130.96"/><polygon class="cls-6" points="173.02 216.29 198.2 216.29 198.2 95.03 173.02 114.33 173.02 216.29"/><polygon class="cls-7" points="221.75 216.29 246.92 216.29 246.68 64.29 221.68 83.29 221.75 216.29"/><path class="cls-8" d="M99.93,89.59a.43.43,0,0,1,0,.65l-13.6,10.83a.54.54,0,0,1-.69,0L23.68,45.58a.56.56,0,0,0-.92.49l-.24,133.74a.56.56,0,0,0,.89.51l209.42-166a3.09,3.09,0,0,0,.64-4l-4.1-6.65a1.57,1.57,0,0,1,1.14-2.43L274.34,0a.71.71,0,0,1,.6,1L256.72,42.62a1.71,1.71,0,0,1-3.1.25l-4.05-6.71a2.48,2.48,0,0,0-3.74-.75l-223,177.21C14.31,219.39.45,211.51.3,199.93L0,30C-.16,17.84,12.36,10.78,21.17,18Z"/></g></g></svg>