<svg xmlns="http://www.w3.org/2000/svg" xmlns:xlink="http://www.w3.org/1999/xlink" viewBox="0 0 905.79 216.29"><defs><style>.cls-1{fill:#fff;}.cls-2{fill:url(#linear-gradient);}.cls-3{fill:url(#linear-gradient-2);}.cls-4{fill:url(#linear-gradient-3);}.cls-5{fill:url(#linear-gradient-4);}.cls-6{fill:url(#linear-gradient-5);}</style><linearGradient id="linear-gradient" x1="88.93" y1="186.23" x2="88.73" y2="196.88" gradientUnits="userSpaceOnUse"><stop offset="0" stop-color="#8284f4"/><stop offset="1" stop-color="#6e71f1"/></linearGradient><linearGradient id="linear-gradient-2" x1="137.28" y1="152.53" x2="137.21" y2="177.84" xlink:href="#linear-gradient"/><linearGradient id="linear-gradient-3" x1="185.83" y1="126.78" x2="185.69" y2="151.95" xlink:href="#linear-gradient"/><linearGradient id="linear-gradient-4" x1="234.44" y1="100.15" x2="234.37" y2="125.39" xlink:href="#linear-gradient"/><linearGradient id="linear-gradient-5" x1="-20.29" y1="127.1" x2="245.91" y2="35.24" xlink:href="#linear-gradient"/></defs><g id="Layer_2" data-name="Layer 2"><g id="Layer_1-2" data-name="Layer 1"><path class="cls-1" d="M329,164.57V75.22H353.2v89.35Zm58.27,0V111.85q0-7.77-4.9-12.12a17.61,17.61,0,0,0-12.12-4.35,19.08,19.08,0,0,0-8.69,2,14.53,14.53,0,0,0-6.11,5.64,17,17,0,0,0-2.22,8.88l-9.43-4.63a34.35,34.35,0,0,1,4.53-17.94,31.3,31.3,0,0,1,12.3-11.75,36.69,36.69,0,0,1,17.58-4.16A34.47,34.47,0,0,1,395,77.53a31.19,31.19,0,0,1,12,11.66q4.44,7.49,4.44,18v57.35Zm58.28,0V111.85q0-7.77-4.91-12.12a17.56,17.56,0,0,0-12.11-4.35,19.31,19.31,0,0,0-8.61,2A14.39,14.39,0,0,0,413.7,103a17,17,0,0,0-2.22,8.88l-13.88-3.33a39.06,39.06,0,0,1,5.74-18.59,34.68,34.68,0,0,1,13.13-12.21,40.37,40.37,0,0,1,36.08-.19,31.33,31.33,0,0,1,12.58,11.93q4.62,7.77,4.62,18.5v56.61Z"/><path class="cls-1" d="M501.57,60.79a13.12,13.12,0,0,1-9.8-4,13.6,13.6,0,0,1-3.89-9.9,13.68,13.68,0,0,1,3.89-9.8,14,14,0,0,1,19.7,0,13.89,13.89,0,0,1,3.79,9.8,13.81,13.81,0,0,1-3.79,9.9A13.07,13.07,0,0,1,501.57,60.79ZM489.36,164.57V75.22h24.42v89.35Z"/><path class="cls-1" d="M535.24,164.57V75.22h24.23v89.35Zm58.27,0V111.85q0-7.77-4.9-12.12a17.61,17.61,0,0,0-12.12-4.35,19.08,19.08,0,0,0-8.69,2,14.53,14.53,0,0,0-6.11,5.64,17,17,0,0,0-2.22,8.88L550,107.22a34.35,34.35,0,0,1,4.53-17.94,31.3,31.3,0,0,1,12.3-11.75,36.69,36.69,0,0,1,17.58-4.16,34.47,34.47,0,0,1,16.83,4.16,31.19,31.19,0,0,1,12,11.66q4.44,7.49,4.44,18v57.35Zm58.28,0V111.85q0-7.77-4.9-12.12a17.61,17.61,0,0,0-12.12-4.35,19.24,19.24,0,0,0-8.6,2A14.36,14.36,0,0,0,620,103a17,17,0,0,0-2.22,8.88l-13.88-3.33a39.06,39.06,0,0,1,5.74-18.59,34.68,34.68,0,0,1,13.13-12.21,40.37,40.37,0,0,1,36.08-.19A31.33,31.33,0,0,1,671.4,89.46Q676,97.23,676,108v56.61Z"/><path class="cls-1" d="M707.84,60.79a13.12,13.12,0,0,1-9.8-4,13.6,13.6,0,0,1-3.89-9.9,13.68,13.68,0,0,1,3.89-9.8,14,14,0,0,1,19.7,0,13.85,13.85,0,0,1,3.79,9.8,13.77,13.77,0,0,1-3.79,9.9A13.07,13.07,0,0,1,707.84,60.79ZM695.63,164.57V75.22h24.42v89.35Z"/><path class="cls-1" d="M741.51,164.57V75.22h24.23v89.35Zm24.23-49.39-9.43-6.29q1.66-16.47,9.62-26t22.94-9.53a30.38,30.38,0,0,1,11.65,2.13A25.76,25.76,0,0,1,810,82.43L794.79,99.82a12.87,12.87,0,0,0-4.9-3.33,18.17,18.17,0,0,0-6.57-1.11,17.13,17.13,0,0,0-12.67,4.91Q765.75,105.2,765.74,115.18Z"/><path class="cls-1" d="M858.06,166.42a48.09,48.09,0,0,1-24.33-6.19,46.93,46.93,0,0,1-17.2-16.84,45.25,45.25,0,0,1-6.39-23.77A44.89,44.89,0,0,1,816.43,96a46.4,46.4,0,0,1,17.21-16.65,51,51,0,0,1,48.75,0A46.73,46.73,0,0,1,899.5,96a44.89,44.89,0,0,1,6.29,23.59,45.83,45.83,0,0,1-6.29,23.77,46.3,46.3,0,0,1-17.11,16.84A48.11,48.11,0,0,1,858.06,166.42Zm-.19-22.57a23.7,23.7,0,0,0,12.12-3,20.73,20.73,0,0,0,8.14-8.51A26.47,26.47,0,0,0,881,119.8a25.28,25.28,0,0,0-3-12.39A21.89,21.89,0,0,0,869.9,99a23.33,23.33,0,0,0-12-3A22.92,22.92,0,0,0,846,99a21.82,21.82,0,0,0-8.14,8.42,25.28,25.28,0,0,0-3,12.39,25.82,25.82,0,0,0,3,12.49A21.59,21.59,0,0,0,846,140.8,22.82,22.82,0,0,0,857.87,143.85Z"/><polygon class="cls-2" points="76.1 215.8 101.2 215.8 101.18 166.62 76.1 185.76 76.1 215.8"/><polygon class="cls-3" points="149.97 130.96 149.68 216.29 124.91 216.17 124.66 149.65 149.97 130.96"/><polygon class="cls-4" points="173.02 216.29 198.2 216.29 198.2 95.03 173.02 114.33 173.02 216.29"/><polygon class="cls-5" points="221.75 216.29 246.92 216.29 246.68 64.29 221.68 83.29 221.75 216.29"/><path class="cls-6" d="M99.93,89.59a.43.43,0,0,1,0,.65l-13.6,10.83a.54.54,0,0,1-.69,0L23.68,45.58a.56.56,0,0,0-.92.49l-.24,133.74a.56.56,0,0,0,.89.51l209.42-166a3.09,3.09,0,0,0,.64-4l-4.1-6.65a1.57,1.57,0,0,1,1.14-2.43L274.34,0a.71.71,0,0,1,.6,1L256.72,42.62a1.71,1.71,0,0,1-3.1.25l-4.05-6.71a2.48,2.48,0,0,0-3.74-.75l-223,177.21C14.31,219.39.45,211.51.3,199.93L0,30C-.16,17.84,12.36,10.78,21.17,18Z"/></g></g></svg>