<svg id="Layer_1" data-name="Layer 1" xmlns="http://www.w3.org/2000/svg" viewBox="0 0 471.35 471.35"><defs><style>.cls-1{fill:#64748b;}.cls-2{fill:#8b5cf6;}.cls-3{fill:#6366f1;}.cls-4{fill:#f43f5e;}.cls-5{fill:#06b6d4;}.cls-6{fill:#f59e0b;}</style></defs><path class="cls-1" d="M1014.25,245c130.16,0,235.67,105.51,235.67,235.67a235.68,235.68,0,0,1-97.52,190.94L1014.25,480.67Z" transform="translate(-778.57 -245)"/><path class="cls-2" d="M1152.4,671.61a235.68,235.68,0,0,1-260.49,10.5l122.34-201.44Z" transform="translate(-778.57 -245)"/><path class="cls-3" d="M891.91,682.11A235.68,235.68,0,0,1,778.63,485.86l235.62-5.19Z" transform="translate(-778.57 -245)"/><path class="cls-4" d="M778.63,485.86a235.68,235.68,0,0,1,40.31-137.08l195.31,131.89Z" transform="translate(-778.57 -245)"/><path class="cls-5" d="M818.94,348.78a235.69,235.69,0,0,1,85-76.37l110.32,208.26Z" transform="translate(-778.57 -245)"/><path class="cls-6" d="M903.93,272.41A235.72,235.72,0,0,1,1014.25,245V480.67Z" transform="translate(-778.57 -245)"/></svg>